<mxfile host="app.diagrams.net" modified="2022-02-06T14:15:35.400Z" agent="5.0 (Macintosh; Intel Mac OS X 10_15_7) AppleWebKit/537.36 (KHTML, like Gecko) Chrome/97.0.4692.71 Safari/537.36 Edg/97.0.1072.62" etag="ZRr2URQdUDoQcw27xnaZ" version="16.5.3" type="github">
  <diagram id="lODO2Ho19lS363PkOUxg" name="Page-1">
    <mxGraphModel dx="946" dy="589" grid="1" gridSize="10" guides="1" tooltips="1" connect="1" arrows="1" fold="1" page="0" pageScale="1" pageWidth="827" pageHeight="1169" math="0" shadow="0">
      <root>
        <mxCell id="0" />
        <mxCell id="1" parent="0" />
        <mxCell id="Elu3GBamNisNBWZrPOnw-19" value="这是第一个" style="swimlane;startSize=20;horizontal=1;containerType=tree;" parent="1" vertex="1">
          <mxGeometry x="30" y="200" width="520" height="150" as="geometry" />
        </mxCell>
        <mxCell id="Elu3GBamNisNBWZrPOnw-20" value="" style="edgeStyle=entityRelationEdgeStyle;startArrow=none;endArrow=none;segment=10;curved=1;rounded=0;" parent="Elu3GBamNisNBWZrPOnw-19" source="Elu3GBamNisNBWZrPOnw-24" target="Elu3GBamNisNBWZrPOnw-25" edge="1">
          <mxGeometry relative="1" as="geometry" />
        </mxCell>
        <mxCell id="Elu3GBamNisNBWZrPOnw-24" value="元知识" style="swimlane;fontFamily=Helvetica;fontSize=12;fontColor=rgb(0, 0, 0);align=center;strokeColor=rgb(0, 0, 0);fillColor=rgb(255, 255, 255);html=1;container=0;startSize=23;" parent="Elu3GBamNisNBWZrPOnw-19" vertex="1">
          <mxGeometry x="130" y="60" width="100" height="90" as="geometry" />
        </mxCell>
        <mxCell id="Elu3GBamNisNBWZrPOnw-25" value="schema" style="whiteSpace=wrap;html=1;rounded=1;arcSize=50;align=center;verticalAlign=middle;strokeWidth=1;autosize=1;spacing=4;treeFolding=1;treeMoving=1;newEdgeStyle={&quot;edgeStyle&quot;:&quot;entityRelationEdgeStyle&quot;,&quot;startArrow&quot;:&quot;none&quot;,&quot;endArrow&quot;:&quot;none&quot;,&quot;segment&quot;:10,&quot;curved&quot;:1};" parent="Elu3GBamNisNBWZrPOnw-19" vertex="1">
          <mxGeometry x="290" y="35" width="80" height="30" as="geometry" />
        </mxCell>
        <mxCell id="DxxxkKUG97s_HWiAUXKt-8" value="" style="edgeStyle=entityRelationEdgeStyle;startArrow=none;endArrow=none;segment=10;curved=1;rounded=0;" edge="1" target="DxxxkKUG97s_HWiAUXKt-9" source="Elu3GBamNisNBWZrPOnw-25" parent="Elu3GBamNisNBWZrPOnw-19">
          <mxGeometry relative="1" as="geometry">
            <mxPoint x="260" y="280" as="sourcePoint" />
          </mxGeometry>
        </mxCell>
        <mxCell id="DxxxkKUG97s_HWiAUXKt-9" value="Topic" style="whiteSpace=wrap;html=1;rounded=1;arcSize=50;align=center;verticalAlign=middle;strokeWidth=1;autosize=1;spacing=4;treeFolding=1;treeMoving=1;newEdgeStyle={&quot;edgeStyle&quot;:&quot;entityRelationEdgeStyle&quot;,&quot;startArrow&quot;:&quot;none&quot;,&quot;endArrow&quot;:&quot;none&quot;,&quot;segment&quot;:10,&quot;curved&quot;:1};" vertex="1" parent="Elu3GBamNisNBWZrPOnw-19">
          <mxGeometry x="410" y="40" width="80" height="20" as="geometry" />
        </mxCell>
        <mxCell id="DxxxkKUG97s_HWiAUXKt-10" value="" style="edgeStyle=entityRelationEdgeStyle;startArrow=none;endArrow=none;segment=10;curved=1;rounded=0;" edge="1" target="DxxxkKUG97s_HWiAUXKt-11" source="Elu3GBamNisNBWZrPOnw-24" parent="Elu3GBamNisNBWZrPOnw-19">
          <mxGeometry relative="1" as="geometry">
            <mxPoint x="260" y="280" as="sourcePoint" />
          </mxGeometry>
        </mxCell>
        <mxCell id="DxxxkKUG97s_HWiAUXKt-11" value="schema" style="whiteSpace=wrap;html=1;rounded=1;arcSize=50;align=center;verticalAlign=middle;strokeWidth=1;autosize=1;spacing=4;treeFolding=1;treeMoving=1;newEdgeStyle={&quot;edgeStyle&quot;:&quot;entityRelationEdgeStyle&quot;,&quot;startArrow&quot;:&quot;none&quot;,&quot;endArrow&quot;:&quot;none&quot;,&quot;segment&quot;:10,&quot;curved&quot;:1};" vertex="1" parent="Elu3GBamNisNBWZrPOnw-19">
          <mxGeometry x="290" y="75" width="80" height="30" as="geometry" />
        </mxCell>
        <mxCell id="DxxxkKUG97s_HWiAUXKt-12" value="wodska" style="text;html=1;align=center;verticalAlign=middle;resizable=0;points=[];autosize=1;strokeColor=none;fillColor=none;" vertex="1" parent="1">
          <mxGeometry x="180" y="300" width="60" height="20" as="geometry" />
        </mxCell>
      </root>
    </mxGraphModel>
  </diagram>
</mxfile>
